<svg id="visual" viewBox="0 0 900 600" width="900" height="600" xmlns="http://www.w3.org/2000/svg" xmlns:xlink="http://www.w3.org/1999/xlink" version="1.1"><rect x="0" y="0" width="900" height="600" fill="#000"></rect><path d="M0 250L21.5 233.8C43 217.7 86 185.3 128.8 184.7C171.7 184 214.3 215 257.2 236.7C300 258.3 343 270.7 385.8 260C428.7 249.3 471.3 215.7 514.2 191.5C557 167.3 600 152.7 642.8 162.2C685.7 171.7 728.3 205.3 771.2 201C814 196.7 857 154.3 878.5 133.2L900 112L900 601L878.5 601C857 601 814 601 771.2 601C728.3 601 685.7 601 642.8 601C600 601 557 601 514.2 601C471.3 601 428.7 601 385.8 601C343 601 300 601 257.2 601C214.3 601 171.7 601 128.8 601C86 601 43 601 21.5 601L0 601Z" fill="#bf5417"></path><path d="M0 336L21.5 319.7C43 303.3 86 270.7 128.8 271.2C171.7 271.7 214.3 305.3 257.2 306.5C300 307.7 343 276.3 385.8 257.8C428.7 239.3 471.3 233.7 514.2 237C557 240.3 600 252.7 642.8 270.3C685.7 288 728.3 311 771.2 310.5C814 310 857 286 878.5 274L900 262L900 601L878.5 601C857 601 814 601 771.2 601C728.3 601 685.7 601 642.8 601C600 601 557 601 514.2 601C471.3 601 428.7 601 385.8 601C343 601 300 601 257.2 601C214.3 601 171.7 601 128.8 601C86 601 43 601 21.5 601L0 601Z" fill="#9a340c"></path><path d="M0 284L21.5 303.8C43 323.7 86 363.3 128.8 375.8C171.7 388.3 214.3 373.7 257.2 366.3C300 359 343 359 385.8 355.5C428.7 352 471.3 345 514.2 335.3C557 325.7 600 313.3 642.8 306.7C685.7 300 728.3 299 771.2 302.5C814 306 857 314 878.5 318L900 322L900 601L878.5 601C857 601 814 601 771.2 601C728.3 601 685.7 601 642.8 601C600 601 557 601 514.2 601C471.3 601 428.7 601 385.8 601C343 601 300 601 257.2 601C214.3 601 171.7 601 128.8 601C86 601 43 601 21.5 601L0 601Z" fill="#761300"></path><path d="M0 408L21.5 405.3C43 402.7 86 397.3 128.8 393C171.7 388.7 214.3 385.3 257.2 385.5C300 385.7 343 389.3 385.8 402C428.7 414.7 471.3 436.3 514.2 446C557 455.7 600 453.3 642.8 451.5C685.7 449.7 728.3 448.3 771.2 442.7C814 437 857 427 878.5 422L900 417L900 601L878.5 601C857 601 814 601 771.2 601C728.3 601 685.7 601 642.8 601C600 601 557 601 514.2 601C471.3 601 428.7 601 385.8 601C343 601 300 601 257.2 601C214.3 601 171.7 601 128.8 601C86 601 43 601 21.5 601L0 601Z" fill="#550000"></path><path d="M0 508L21.5 506.3C43 504.7 86 501.3 128.8 497.7C171.7 494 214.3 490 257.2 484.5C300 479 343 472 385.8 472.8C428.7 473.7 471.3 482.3 514.2 494.3C557 506.3 600 521.7 642.8 516.2C685.7 510.7 728.3 484.3 771.2 475.7C814 467 857 476 878.5 480.5L900 485L900 601L878.5 601C857 601 814 601 771.2 601C728.3 601 685.7 601 642.8 601C600 601 557 601 514.2 601C471.3 601 428.7 601 385.8 601C343 601 300 601 257.2 601C214.3 601 171.7 601 128.8 601C86 601 43 601 21.5 601L0 601Z" fill="#000000"></path></svg>